# xmcd
#
# Track frame offsets: 
#        150
#        5595
#        30695
#        51870
#        69332
#        92545
#        107892
#        128065
#        151420
#        169997
#        195907
#        209537
#        233142
#
# Disc length: 3466 seconds
#
# Revision: 2
# Processed by: cddbd v1.5.1PL0 Copyright (c) Steve Scherf et al.
# Submitted via: ExactAudioCopy v0.95a3
#
DISCID=a80d880d
DTITLE=Lord Finesse and DJ Mike Smooth - Funky Technician
DYEAR=1990
DGENRE=Hip Hop
TTITLE0=Lord Finesse's Theme Song Intro
TTITLE1=Baby,You Nasty (New Version)
TTITLE2=Funky Technician
TTITLE3=Back To Back Rhyming
TTITLE4=Here I Come
TTITLE5=Slave To My Soundwave
TTITLE6=I Keep The Crowd Listening
TTITLE7=Bud Mutha
TTITLE8=Keep It Flowing
TTITLE9=Lesson To Be Taught
TTITLE10=Just A Little Something
TTITLE11=Strictly For The Ladies
TTITLE12=Track The Movement
EXTD=
EXTT0=
EXTT1=
EXTT2=
EXTT3=
EXTT4=
EXTT5=
EXTT6=
EXTT7=
EXTT8=
EXTT9=
EXTT10=
EXTT11=
EXTT12=
PLAYORDER=
